<svg width="20" height="21" viewBox="0 0 20 21" fill="none" xmlns="http://www.w3.org/2000/svg">
<path d="M17.4184 11.3468C17.4996 11.1341 17.5208 10.9001 17.4794 10.6743C17.438 10.4485 17.3359 10.2411 17.1859 10.0784L12.8999 5.42362C12.8011 5.31248 12.6829 5.22382 12.5521 5.16284C12.4214 5.10185 12.2808 5.06975 12.1385 5.0684C11.9963 5.06706 11.8552 5.0965 11.7235 5.15502C11.5918 5.21353 11.4722 5.29993 11.3716 5.4092C11.271 5.51846 11.1914 5.64839 11.1375 5.7914C11.0836 5.93441 11.0565 6.08765 11.0578 6.24216C11.059 6.39668 11.0886 6.54938 11.1447 6.69135C11.2009 6.83333 11.2825 6.96173 11.3848 7.06908L13.8429 9.73858H3.5715C3.28732 9.73858 3.01478 9.86119 2.81383 10.0794C2.61289 10.2977 2.5 10.5936 2.5 10.9023C2.5 11.2109 2.61289 11.5069 2.81383 11.7251C3.01478 11.9434 3.28732 12.066 3.5715 12.066H13.8429L11.3859 14.7343C11.2836 14.8417 11.202 14.9701 11.1458 15.112C11.0896 15.254 11.0601 15.4067 11.0588 15.5612C11.0576 15.7157 11.0847 15.869 11.1386 16.012C11.1925 16.155 11.272 16.2849 11.3726 16.3942C11.4732 16.5035 11.5929 16.5899 11.7246 16.6484C11.8562 16.7069 11.9973 16.7363 12.1396 16.735C12.2819 16.7336 12.4225 16.7015 12.5532 16.6405C12.6839 16.5796 12.8022 16.4909 12.901 16.3798L17.187 11.725C17.2863 11.6167 17.3649 11.4882 17.4184 11.3468Z" fill="#1C64F2"/>
</svg>
