<svg width="34" height="45" viewBox="0 0 34 45" fill="none" xmlns="http://www.w3.org/2000/svg">
<g id="Group">
<path id="Vector" d="M24.3839 13.4562V15.3293C24.3839 15.9047 23.9236 16.3713 23.3554 16.3713H21.1585V18.5649C21.1585 19.1403 20.6977 19.6069 20.1295 19.6069H18.2797C17.7115 19.6069 17.2512 19.1403 17.2512 18.5649V16.3713H15.1144C14.5462 16.3713 14.0859 15.9047 14.0859 15.3293V13.4562C14.0859 13.3813 14.0936 13.3078 14.1089 13.2372C14.2082 12.7673 14.6202 12.4148 15.1144 12.4148H17.2512V10.2207C17.2512 9.64529 17.7115 9.17871 18.2797 9.17871H20.1295C20.6977 9.17871 21.1585 9.64529 21.1585 10.2207V12.4148H23.3554C23.9236 12.4148 24.3839 12.8809 24.3839 13.4562Z" fill="url(#paint0_linear_4_3242)"/>
<path id="Vector_2" d="M19.2564 0.280273C11.9465 0.280273 5.95117 5.98365 5.37532 13.2352C5.36338 13.3788 5.35431 13.5229 5.34715 13.6674V28.6656C4.50343 28.7962 3.83208 29.049 3.29873 29.3744C0.958559 30.8003 1.26415 33.6162 1.26415 33.6162H1.61176C1.61176 33.6162 0.451468 38.6533 0.0365309 40.8943C-0.278133 42.5943 1.52152 43.8335 2.30842 44.0226C2.47983 44.0608 2.68563 44.0922 2.91912 44.0999C3.21803 44.1101 3.47826 44.0791 3.6874 44.0376C3.83638 44.2996 4.13003 44.4906 4.48051 44.5206C5.01529 44.566 5.48084 44.2194 5.52 43.7455C5.55915 43.2722 5.1885 42.7623 4.65372 42.7169C4.39014 42.6947 4.13146 42.7423 3.94429 42.8786C0.465792 42.8786 1.22547 40.3688 1.22547 40.3688L2.74484 33.6244H3.07049C3.07049 31.4395 4.67341 30.7466 5.75062 30.5281C6.20233 30.4362 6.56188 30.4275 6.67218 30.4275H6.70703C6.81733 30.4275 7.17688 30.4362 7.62858 30.5281C8.7058 30.7466 10.3087 31.4395 10.3087 33.6244H10.6344L12.1537 40.3688C12.1537 40.3688 12.9026 42.8014 9.45659 42.8145C9.26846 42.6738 9.02428 42.6615 8.75641 42.6842C8.22162 42.7297 7.82006 43.1503 7.85921 43.6237C7.89836 44.097 8.36391 44.4442 8.8987 44.3987C9.19952 44.3731 9.45832 44.2285 9.62066 44.0226C9.84031 44.0714 10.1263 44.1115 10.4596 44.0999C10.6936 44.0922 10.8994 44.0608 11.0708 44.0226C11.8577 43.8335 13.6573 42.5943 13.3427 40.8943C12.9277 38.6533 11.7674 33.6162 11.7674 33.6162H12.1151C12.1151 33.6162 12.296 31.9467 11.311 30.5281C10.7428 29.709 9.78635 28.9736 8.18247 28.6903V15.7741C8.12708 15.3181 8.09843 14.854 8.09843 14.3825C8.09843 13.9953 8.11753 13.6123 8.15525 13.2352C8.72251 7.53375 13.4764 3.08409 19.2564 3.08409C25.4188 3.08409 30.4148 8.14248 30.4148 14.3825C30.4148 20.4282 25.7249 25.3653 19.8284 25.667C19.7147 25.2908 19.5433 24.9407 19.3251 24.626C18.6624 23.6701 17.5656 23.0459 16.3246 23.0459C15.2903 23.0459 14.3564 23.4796 13.6903 24.1773C13.0524 24.845 12.6599 25.7545 12.6599 26.7568C12.6599 26.7732 12.6599 26.7896 12.6608 26.8056C12.6861 28.8324 14.3168 30.4672 16.3246 30.4672C17.5656 30.4672 18.6624 29.843 19.3251 28.8871C19.4154 28.7575 19.497 28.6221 19.5701 28.4809C27.1172 28.3122 33.1832 22.0644 33.1832 14.3825C33.1832 6.59431 26.9477 0.280273 19.2564 0.280273ZM17.3698 28.3562C17.0704 28.5578 16.7114 28.6748 16.3246 28.6748C15.6193 28.6748 15.0039 28.2842 14.6782 27.7049H14.6777C14.5202 27.4255 14.4304 27.1015 14.4304 26.7568C14.4304 25.9948 14.8692 25.3367 15.5047 25.0268H15.5052C15.753 24.9064 16.0309 24.8387 16.3246 24.8387C16.9367 24.8387 17.4815 25.1327 17.8277 25.5896C18.0731 25.9131 18.2188 26.3178 18.2188 26.7568C18.2188 27.425 17.8817 28.0134 17.3698 28.3562Z" fill="url(#paint1_linear_4_3242)"/>
</g>
<defs>
<linearGradient id="paint0_linear_4_3242" x1="23.1578" y1="10.0505" x2="16.9828" y2="20.8465" gradientUnits="userSpaceOnUse">
<stop stop-color="#0BECCE"/>
<stop offset="1" stop-color="#027BEF"/>
</linearGradient>
<linearGradient id="paint1_linear_4_3242" x1="29.2323" y1="3.97901" x2="0.0193704" y2="42.7688" gradientUnits="userSpaceOnUse">
<stop stop-color="#0BECCE"/>
<stop offset="1" stop-color="#027BEF"/>
</linearGradient>
</defs>
</svg>
